<svg width="400" height="400" xmlns="http://www.w3.org/2000/svg">
  <defs>
    <!-- Small star -->
    <path id="small-star" d="M1,0 L1.3,0.7 L2,1 L1.3,1.3 L1,2 L0.7,1.3 L0,1 L0.7,0.7 Z" fill="white"/>
    
    <!-- Medium star -->
    <path id="medium-star" d="M2,0 L2.6,1.4 L4,2 L2.6,2.6 L2,4 L1.4,2.6 L0,2 L1.4,1.4 Z" fill="white"/>
    
    <!-- Large star -->
    <path id="large-star" d="M3,0 L3.9,2.1 L6,3 L3.9,3.9 L3,6 L2.1,3.9 L0,3 L2.1,2.1 Z" fill="white"/>
  </defs>
  
  <!-- Small stars -->
  <use href="#small-star" x="20" y="30" opacity="0.5"/>
  <use href="#small-star" x="80" y="60" opacity="0.7"/>
  <use href="#small-star" x="140" y="40" opacity="0.6"/>
  <use href="#small-star" x="200" y="70" opacity="0.8"/>
  <use href="#small-star" x="260" y="30" opacity="0.5"/>
  <use href="#small-star" x="320" y="50" opacity="0.7"/>
  <use href="#small-star" x="40" y="120" opacity="0.6"/>
  <use href="#small-star" x="100" y="150" opacity="0.5"/>
  <use href="#small-star" x="160" y="130" opacity="0.7"/>
  <use href="#small-star" x="220" y="160" opacity="0.6"/>
  <use href="#small-star" x="280" y="120" opacity="0.8"/>
  <use href="#small-star" x="340" y="140" opacity="0.5"/>
  <use href="#small-star" x="60" y="210" opacity="0.7"/>
  <use href="#small-star" x="120" y="240" opacity="0.6"/>
  <use href="#small-star" x="180" y="220" opacity="0.8"/>
  <use href="#small-star" x="240" y="250" opacity="0.5"/>
  <use href="#small-star" x="300" y="210" opacity="0.7"/>
  <use href="#small-star" x="360" y="230" opacity="0.6"/>
  <use href="#small-star" x="30" y="300" opacity="0.8"/>
  <use href="#small-star" x="90" y="330" opacity="0.5"/>
  <use href="#small-star" x="150" y="310" opacity="0.7"/>
  <use href="#small-star" x="210" y="340" opacity="0.6"/>
  <use href="#small-star" x="270" y="300" opacity="0.8"/>
  <use href="#small-star" x="330" y="320" opacity="0.5"/>
  <use href="#small-star" x="50" y="390" opacity="0.7"/>
  <use href="#small-star" x="110" y="370" opacity="0.6"/>
  <use href="#small-star" x="170" y="380" opacity="0.8"/>
  <use href="#small-star" x="230" y="360" opacity="0.5"/>
  <use href="#small-star" x="290" y="390" opacity="0.7"/>
  <use href="#small-star" x="350" y="370" opacity="0.6"/>
  
  <!-- Medium stars -->
  <use href="#medium-star" x="50" y="50" opacity="0.6"/>
  <use href="#medium-star" x="150" y="80" opacity="0.7"/>
  <use href="#medium-star" x="250" y="60" opacity="0.5"/>
  <use href="#medium-star" x="350" y="90" opacity="0.6"/>
  <use href="#medium-star" x="70" y="170" opacity="0.7"/>
  <use href="#medium-star" x="170" y="150" opacity="0.5"/>
  <use href="#medium-star" x="270" y="180" opacity="0.6"/>
  <use href="#medium-star" x="370" y="160" opacity="0.7"/>
  <use href="#medium-star" x="90" y="270" opacity="0.5"/>
  <use href="#medium-star" x="190" y="290" opacity="0.6"/>
  <use href="#medium-star" x="290" y="270" opacity="0.7"/>
  <use href="#medium-star" x="390" y="290" opacity="0.5"/>
  
  <!-- Large stars -->
  <use href="#large-star" x="100" y="100" opacity="0.7"/>
  <use href="#large-star" x="300" y="150" opacity="0.6"/>
  <use href="#large-star" x="200" y="200" opacity="0.8"/>
  <use href="#large-star" x="100" y="300" opacity="0.6"/>
  <use href="#large-star" x="300" y="350" opacity="0.7"/>
</svg>
