<svg width="100%" height="100%" viewBox="0 0 2385 512" xmlns="http://www.w3.org/2000/svg" preserveAspectRatio="xMidYMid">
  <rect width="2385" height="512" rx="256" fill="#000"/>
  <path d="M1061.45 364.586V172.496h30.113v192.09h-30.113Zm-230.966 0 89.818-101.974-83.455-90.116h37.793l64.665 69.857 64.155-69.857h37.033l-83.455 90.116 89.827 101.974h-38.042l-70.029-79.917-69.349 79.917h-38.961Zm295.547 0V172.496h29.343v80.196c16.292-19.885 40.218-33.114 68.58-33.114 54.083 0 90.607 41.584 90.607 98.075 0 56.5-36.524 98.043-90.607 98.043-27.722 0-51.339-12.429-68.013-31.764l-1.871 27.56H1126Zm88.23-21.224c38.881 0 66.286-30.394 66.286-71.978 0-41.584-27.405-72.01-66.286-72.01-38.882 0-66.916 30.426-66.916 72.01s28.034 71.978 66.916 71.978Zm130.853 21.224V172.496h29.343v80.196c16.292-19.885 40.218-33.114 68.58-33.114 54.083 0 90.607 41.584 90.607 98.075 0 56.5-36.524 98.043-90.607 98.043-27.722 0-51.339-12.429-68.013-31.764l-1.871 27.56h-28.039v-.006Zm88.23-21.224c38.881 0 66.286-30.394 66.286-71.978 0-41.584-27.405-72.01-66.286-72.01-38.882 0-66.916 30.426-66.916 72.01s28.034 71.978 66.916 71.978Zm130.853 21.224V172.496h30.113v192.09h-30.113Zm63.016 0V172.496h29.343v27.56c15.532-20.645 38.881-32.354 65.177-32.354v28.82c-3.742-.519-7.993-.519-12.243-.519-22.326 0-52.198 16.885-52.198 50.779v117.804h-30.113l.034-.006Zm119.09 0V122.226h30.113v242.36h-30.113Zm67.17 0v-36.264h30.113v36.264h-30.113Z" fill="#fff"/>
  <path d="M699.238 361.392c-76.26 0-132.693-58.74-132.693-125.386 0-66.646 56.433-125.386 132.693-125.386s132.693 58.74 132.693 125.386c0 66.646-56.433 125.386-132.693 125.386Zm0-47.46c43.483 0 76.26-33.957 76.26-77.927s-32.777-77.926-76.26-77.926-76.26 33.957-76.26 77.926 32.777 77.927 76.26 77.927Z" fill="#fff"/>
</svg> 