<svg width="100%" height="100%" viewBox="0 0 256 107" xmlns="http://www.w3.org/2000/svg" preserveAspectRatio="xMidYMid">
  <path d="M114.465 36.966h11.48c4.023 0 7.286.45 9.788 1.35 2.503.9 4.367 2.096 5.595 3.587 1.227 1.49 2.091 3.235 2.59 5.234.498 2 .747 4.05.747 6.152 0 3.016-.548 5.525-1.644 7.528-1.097 2.002-2.621 3.644-4.573 4.924-1.952 1.28-4.207 2.185-6.767 2.716-2.56.53-5.396.796-8.518.796h-8.698V36.966Zm13.921 26.487c1.745 0 3.279-.178 4.59-.532 1.312-.355 2.426-.91 3.331-1.663.905-.753 1.578-1.757 2.02-3.01.441-1.253.662-2.79.662-4.61 0-1.784-.221-3.284-.661-4.5-.442-1.215-1.09-2.208-1.946-2.977-.855-.77-1.9-1.317-3.139-1.646-1.238-.328-2.657-.492-4.255-.492h-6.024v19.43h5.422Zm23.179-3.73c0 .952.222 1.69.663 2.216.443.525 1.204.788 2.284.788.568 0 1.17-.083 1.809-.248a15.398 15.398 0 0 0 1.917-.608l.442 4.649c-.316.16-.71.312-1.185.454a15.826 15.826 0 0 1-1.588.377 17.459 17.459 0 0 1-1.847.265 15.613 15.613 0 0 1-1.901.112c-1.635 0-3.041-.223-4.217-.671-1.175-.448-2.14-1.09-2.898-1.929-.758-.837-1.312-1.843-1.663-3.017-.353-1.175-.53-2.483-.53-3.924V29.19h6.714v30.532Zm10.448-21.38h-3.55v-5.006h3.55v-.51c0-1.705.219-3.252.653-4.641a9.927 9.927 0 0 1 1.937-3.644c.853-1.033 1.9-1.83 3.138-2.392 1.238-.562 2.657-.843 4.255-.843 1.344 0 2.536.089 3.595.266a39.23 39.23 0 0 1 2.608.53l-.885 5.157a14.018 14.018 0 0 0-1.811-.454 13.747 13.747 0 0 0-2.168-.168c-1.706 0-2.952.463-3.729 1.386-.777.924-1.165 2.292-1.165 4.105v1.208h6.713v5.006h-6.713v22.974h-6.427V38.342Zm15.675 11.743c0-2.334.328-4.416.984-6.247a13.562 13.562 0 0 1 2.79-4.707c1.205-1.29 2.664-2.279 4.375-2.96 1.71-.68 3.612-1.021 5.707-1.021 4.55 0 8.068 1.263 10.56 3.79 2.493 2.525 3.74 6.298 3.74 11.32 0 .486-.02.997-.055 1.534a16.19 16.19 0 0 1-.167 1.534h-21.322c.213 1.74.959 3.101 2.24 4.08 1.28.98 3.019 1.471 5.222 1.471 1.42 0 2.809-.123 4.166-.37 1.357-.248 2.618-.594 3.775-1.038l1.17 5.233a34.793 34.793 0 0 1-3.962 1.182c-1.53.344-3.384.517-5.563.517-2.338 0-4.414-.339-6.232-1.016-1.82-.678-3.35-1.639-4.596-2.883-1.244-1.243-2.191-2.734-2.837-4.471-.648-1.738-.97-3.678-.97-5.82l-.025-.04v-.078Zm21.874-2.687c0-.696-.103-1.36-.307-1.995a5.024 5.024 0 0 0-.934-1.694c-.42-.496-.942-.886-1.57-1.17-.627-.285-1.36-.427-2.201-.427-.842 0-1.586.152-2.234.455-.646.303-1.185.702-1.616 1.195-.432.494-.764 1.06-.996 1.698-.232.639-.386 1.294-.456 1.968l10.314-.03Zm29.24-1.678c-1.278-.783-2.889-1.207-4.825-1.279a9.65 9.65 0 0 0-2.135.22c-.687.146-1.287.372-1.802.677-.514.304-.919.69-1.214 1.16-.296.468-.444 1.031-.444 1.688 0 .655.13 1.197.39 1.624.26.428.614.783 1.059 1.066.444.283.969.509 1.575.677.605.17 1.254.322 1.942.458l1.64.35c1.171.267 2.304.595 3.398.985 1.093.39 2.062.938 2.909 1.642.847.706 1.524 1.596 2.03 2.672.506 1.077.76 2.403.76 3.978 0 1.742-.344 3.21-1.033 4.404-.69 1.195-1.604 2.173-2.746 2.933-1.141.76-2.448 1.307-3.918 1.642-1.471.334-3.01.501-4.617.501-1.812 0-3.518-.143-5.118-.43-1.6-.284-3.072-.71-4.419-1.277l1.206-5.346c1.137.568 2.391.978 3.76 1.229 1.367.25 2.762.377 4.183.377.77 0 1.52-.065 2.25-.193.731-.127 1.383-.337 1.943-.627a3.45 3.45 0 0 0 1.368-1.21c.342-.517.514-1.165.514-1.944a2.89 2.89 0 0 0-.425-1.607 3.7 3.7 0 0 0-1.172-1.14 8.345 8.345 0 0 0-1.8-.843 63.044 63.044 0 0 0-2.23-.662l-1.598-.38c-1.137-.268-2.185-.575-3.147-.92-.962-.345-1.8-.81-2.508-1.393-.71-.584-1.266-1.317-1.669-2.196-.403-.881-.603-1.963-.603-3.243 0-1.636.316-3.054.95-4.255.634-1.2 1.495-2.185 2.582-2.96 1.087-.773 2.373-1.353 3.855-1.74 1.483-.386 3.075-.579 4.784-.579 1.775 0 3.434.15 4.984.448 1.55.3 2.858.675 3.927 1.124l-1.214 5.006c-1.066-.449-2.201-.79-3.408-1.022-1.207-.233-2.461-.35-3.76-.35-2.444 0-3.666.616-3.666 1.847 0 .621.22 1.104.657 1.45a5.7 5.7 0 0 0 1.706.887 31.1 31.1 0 0 0 2.318.653l2.493.65c1.173.304 2.222.662 3.147 1.074.926.412 1.7.95 2.322 1.607a7.106 7.106 0 0 1 1.485 2.44c.345.984.533 2.11.568 3.38.035 1.26-.113 2.376-.441 3.342a8.331 8.331 0 0 1-1.427 2.596c-.657.778-1.456 1.463-2.4 2.055-.942.593-2.026 1.078-3.25 1.455-1.224.377-2.551.565-3.981.565-1.954 0-3.784-.166-5.485-.497a17.45 17.45 0 0 1-4.519-1.49l1.083-5.536c1.385.627 2.833 1.1 4.342 1.42 1.51.321 3.018.485 4.52.492 2.836 0 4.254-.811 4.254-2.435 0-.595-.246-1.092-.735-1.491-.492-.399-1.126-.749-1.906-1.05a17.667 17.667 0 0 0-2.653-.843 93.993 93.993 0 0 1-2.978-.763 21.276 21.276 0 0 1-2.979-.986 8.524 8.524 0 0 1-2.652-1.697c-.779-.712-1.413-1.616-1.904-2.714-.49-1.096-.735-2.466-.735-4.105 0-1.53.334-2.85 1.003-3.966.669-1.115 1.558-2.04 2.668-2.777 1.11-.736 2.386-1.289 3.83-1.659 1.443-.37 2.965-.553 4.565-.553 1.563 0 3.107.13 4.633.39 1.525.26 2.785.58 3.777.957l-1.213 4.965a23.84 23.84 0 0 0-3.5-.944Zm58.36-5.121a55.17 55.17 0 0 0-4.202-1.001 23.797 23.797 0 0 0-4.413-.434c-1.033 0-1.934.116-2.7.348-.767.233-1.149.71-1.149 1.434 0 .59.245 1.05.735 1.37.49.322 1.243.641 2.263.957l3.172.908c1.739.521 3.121 1.343 4.149 2.463 1.028 1.12 1.542 2.55 1.542 4.288 0 2.757-1.043 4.828-3.128 6.211-2.085 1.384-5.052 2.077-8.901 2.076-1.492 0-2.995-.143-4.503-.428-1.51-.286-2.903-.678-4.16-1.178l1.16-5.008c1.1.537 2.33.95 3.698 1.24 1.367.286 2.73.432 4.09.432 1.135 0 2.105-.111 2.908-.331.803-.22 1.205-.694 1.205-1.42 0-.59-.251-1.039-.752-1.344-.501-.305-1.294-.614-2.38-.927l-3.061-.923c-1.635-.52-2.963-1.337-3.99-2.444-1.026-1.108-1.54-2.597-1.54-4.472 0-1.352.276-2.509.825-3.469.55-.96 1.29-1.75 2.217-2.368.926-.62 2.006-1.076 3.239-1.37a16.93 16.93 0 0 1 3.957-.444c1.491 0 3.002.113 4.529.338 1.525.224 2.845.552 3.953.982l-1.167 4.514Z" fill="#635BFF"/>
</svg> 