<svg width="100%" height="100%" viewBox="0 0 256 256" xmlns="http://www.w3.org/2000/svg" preserveAspectRatio="xMidYMid">
  <path fill="#3178C6" d="M20 0h216c11.046 0 20 8.954 20 20v216c0 11.046-8.954 20-20 20H20c-11.046 0-20-8.954-20-20V20C0 8.954 8.954 0 20 0Z"/>
  <path d="M150.518 200.475v27.62c4.492 2.302 9.805 4.028 15.938 5.179 6.133 1.151 12.597 1.726 19.393 1.726 6.622 0 12.914-.633 18.874-1.899 5.96-1.266 11.187-3.352 15.678-6.257 4.492-2.906 8.048-6.704 10.669-11.394 2.62-4.689 3.93-10.486 3.93-17.391 0-5.006-.749-9.394-2.246-13.163-1.497-3.77-3.708-7.138-6.633-10.103-2.925-2.964-6.551-5.65-10.878-8.057-4.327-2.407-9.309-4.689-14.946-6.845a625.231 625.231 0 0 1-12.062-4.588c-3.681-1.48-6.857-3.025-9.526-4.634-2.67-1.608-4.753-3.33-6.248-5.163-1.497-1.833-2.245-3.982-2.245-6.448 0-2.197.592-4.148 1.776-5.854 1.184-1.706 2.767-3.127 4.753-4.262 1.985-1.135 4.289-1.987 6.91-2.557 2.622-.57 5.356-.855 8.203-.855 2.158 0 4.425.177 6.804.53 2.377.354 4.735.913 7.076 1.676 2.34.763 4.59 1.726 6.748 2.89 2.158 1.163 4.115 2.557 5.871 4.18v-25.407c-4.198-1.608-8.797-2.814-13.796-3.616-4.999-.802-10.583-1.203-16.751-1.203-6.584 0-12.783.665-18.597 1.994-5.813 1.33-10.91 3.463-15.288 6.401-4.379 2.94-7.845 6.724-10.4 11.355-2.553 4.63-3.83 10.216-3.83 16.76 0 8.247 2.444 15.291 7.334 21.13 4.889 5.84 12.524 10.819 22.902 14.935 4.034 1.569 7.845 3.127 11.433 4.673 3.587 1.546 6.759 3.184 9.514 4.915 2.756 1.73 4.944 3.655 6.562 5.776 1.619 2.12 2.428 4.6 2.428 7.441 0 2.12-.489 4.051-1.467 5.797-.979 1.746-2.428 3.235-4.348 4.468-1.92 1.233-4.274 2.202-7.064 2.905-2.79.703-6.02 1.055-9.695 1.055-5.94 0-11.92-1.09-17.939-3.272-6.02-2.181-11.732-5.452-17.137-9.811Zm-46.95-82.319h35.67v-22.595H35v22.595h35.593v101.405h32.975V118.156Z" fill="#FFF"/>
</svg> 